<?xml version="1.0" standalone="no"?>
<!DOCTYPE svg PUBLIC "-//W3C//DTD SVG 20010904//EN"
 "http://www.w3.org/TR/2001/REC-SVG-20010904/DTD/svg10.dtd">
<svg version="1.0" xmlns="http://www.w3.org/2000/svg"
 width="512.000000pt" height="512.000000pt" viewBox="0 0 512.000000 512.000000"
 preserveAspectRatio="xMidYMid meet">

<g transform="translate(0.000000,512.000000) scale(0.100000,-0.100000)"
fill="#000000" stroke="none">
<path d="M2335 5104 c-454 -60 -856 -257 -1168 -570 -373 -374 -577 -868 -577
-1394 0 -794 464 -1688 1340 -2584 253 -259 566 -540 615 -552 32 -8 66 13
175 106 899 772 1532 1664 1735 2445 50 195 67 310 72 518 7 227 -5 352 -47
527 -124 507 -442 949 -878 1220 -378 234 -850 340 -1267 284z m370 -1289 c39
-8 113 -36 165 -61 158 -78 290 -231 341 -394 113 -365 -71 -736 -430 -864
-80 -29 -96 -31 -221 -31 -125 0 -141 2 -221 31 -359 128 -543 499 -430 864
30 96 87 185 171 271 126 127 293 197 475 198 44 0 112 -6 150 -14z"/>
</g>
</svg>
